<svg width="29" height="29" viewBox="0 0 29 29" fill="none" xmlns="http://www.w3.org/2000/svg">
<mask id="mask0_1_13" style="mask-type:alpha" maskUnits="userSpaceOnUse" x="0" y="0" width="29" height="29">
<path d="M15.7047 0.924255V2.85269C17.6121 2.85269 19.399 3.3348 21.0655 4.29902C22.6516 5.24315 23.9165 6.50869 24.8602 8.09563C25.8239 9.76292 26.3058 11.5507 26.3058 13.4591H28.2332C28.2332 11.1892 27.661 9.07994 26.5166 7.13141C25.4123 5.24315 23.9165 3.7466 22.0292 2.64177C20.0817 1.49676 17.9735 0.924255 15.7047 0.924255ZM5.73617 3.81691C5.19408 3.81691 4.72225 3.98766 4.3207 4.32915L1.21869 7.49299L1.30904 7.43273C0.8071 7.85458 0.475821 8.37686 0.315199 8.99959C0.174655 9.62231 0.214811 10.2249 0.435665 10.8075C0.99784 12.3743 1.75075 13.9814 2.6944 15.6286C4.01953 17.8985 5.59563 19.9374 7.4227 21.7453C10.354 24.6983 13.9981 27.0285 18.355 28.7359H18.3851C18.9674 28.9368 19.5496 28.977 20.1319 28.8565C20.7342 28.7359 21.2663 28.4748 21.728 28.073L24.7698 25.0297C25.1714 24.628 25.3721 24.1358 25.3721 23.5533C25.3721 22.9506 25.1714 22.4484 24.7698 22.0467L20.8246 18.0693C20.423 17.6675 19.9211 17.4666 19.3187 17.4666C18.7164 17.4666 18.2145 17.6675 17.8129 18.0693L15.9156 19.9977C14.3897 19.2745 13.0645 18.3806 11.9402 17.316C10.8158 16.2312 9.9224 14.9155 9.25981 13.3687L11.1873 11.4403C11.6089 10.9983 11.8197 10.476 11.8197 9.87341C11.8197 9.25068 11.5788 8.74849 11.0969 8.36682L11.1873 8.45721L7.15165 4.32915C6.7501 3.98766 6.27827 3.81691 5.73617 3.81691ZM15.7047 4.78113V6.70957C16.9295 6.70957 18.0538 7.01088 19.0778 7.61352C20.1218 8.21616 20.945 9.03976 21.5473 10.0843C22.1497 11.1088 22.4508 12.2337 22.4508 13.4591H24.3783C24.3783 11.8922 23.9868 10.4359 23.2038 9.08998C22.4207 7.78427 21.3767 6.7397 20.0716 5.95627C18.7264 5.17284 17.2708 4.78113 15.7047 4.78113ZM5.73617 5.74535C5.79641 5.74535 5.86668 5.77548 5.94699 5.83574L9.8923 9.87341C9.9123 9.95376 9.8923 10.0241 9.832 10.0843L6.97095 12.9167L7.18177 13.5194L7.57328 14.3631C7.89452 15.046 8.26596 15.7089 8.68759 16.3518C9.26985 17.2557 9.9123 18.0291 10.615 18.6719C11.5587 19.5959 12.6931 20.4396 14.0182 21.203C14.6808 21.5846 15.243 21.8659 15.7047 22.0467L16.3071 22.3179L19.2284 19.3951C19.2685 19.3549 19.2986 19.3348 19.3187 19.3348C19.3388 19.3348 19.3689 19.3549 19.4091 19.3951L23.4748 23.4629C23.515 23.503 23.535 23.5332 23.535 23.5533C23.535 23.5533 23.515 23.5733 23.4748 23.6135L20.4632 26.5966C20.0214 26.9782 19.5396 27.0787 19.0176 26.8979C14.9217 25.3109 11.5085 23.1415 8.77794 20.3894C7.09142 18.702 5.61571 16.7836 4.35081 14.6342C3.44732 13.0875 2.7446 11.5909 2.24266 10.1446V10.1145C2.16235 9.93367 2.15231 9.72275 2.21254 9.48169C2.27277 9.22055 2.3832 9.01967 2.54382 8.87906L5.52536 5.83574C5.58559 5.77548 5.65586 5.74535 5.73617 5.74535ZM15.7047 8.638V10.5664C16.5078 10.5664 17.1905 10.8477 17.7527 11.4101C18.3148 11.9726 18.5959 12.6556 18.5959 13.4591H20.5234C20.5234 12.5953 20.3025 11.7918 19.8608 11.0485C19.4392 10.3053 18.8569 9.72275 18.1141 9.3009C17.3712 8.85897 16.5681 8.638 15.7047 8.638Z" fill="black"/>
</mask>
<g mask="url(#mask0_1_13)">
<path d="M15.7047 0.924255V2.85269C17.6121 2.85269 19.399 3.3348 21.0655 4.29902C22.6516 5.24315 23.9165 6.50869 24.8602 8.09563C25.8239 9.76292 26.3058 11.5507 26.3058 13.4591H28.2332C28.2332 11.1892 27.661 9.07994 26.5166 7.13141C25.4123 5.24315 23.9165 3.7466 22.0292 2.64177C20.0817 1.49676 17.9735 0.924255 15.7047 0.924255ZM5.73617 3.81691C5.19408 3.81691 4.72225 3.98766 4.3207 4.32915L1.21869 7.49299L1.30904 7.43273C0.8071 7.85458 0.475821 8.37686 0.315199 8.99959C0.174655 9.62231 0.214811 10.2249 0.435665 10.8075C0.99784 12.3743 1.75075 13.9814 2.6944 15.6286C4.01953 17.8985 5.59563 19.9374 7.4227 21.7453C10.354 24.6983 13.9981 27.0285 18.355 28.7359H18.3851C18.9674 28.9368 19.5496 28.977 20.1319 28.8565C20.7342 28.7359 21.2663 28.4748 21.728 28.073L24.7698 25.0297C25.1714 24.628 25.3721 24.1358 25.3721 23.5533C25.3721 22.9506 25.1714 22.4484 24.7698 22.0467L20.8246 18.0693C20.423 17.6675 19.9211 17.4666 19.3187 17.4666C18.7164 17.4666 18.2145 17.6675 17.8129 18.0693L15.9156 19.9977C14.3897 19.2745 13.0645 18.3806 11.9402 17.316C10.8158 16.2312 9.9224 14.9155 9.25981 13.3687L11.1873 11.4403C11.6089 10.9983 11.8197 10.476 11.8197 9.87341C11.8197 9.25068 11.5788 8.74849 11.0969 8.36682L11.1873 8.45721L7.15165 4.32915C6.7501 3.98766 6.27827 3.81691 5.73617 3.81691ZM15.7047 4.78113V6.70957C16.9295 6.70957 18.0538 7.01088 19.0778 7.61352C20.1218 8.21616 20.945 9.03976 21.5473 10.0843C22.1497 11.1088 22.4508 12.2337 22.4508 13.4591H24.3783C24.3783 11.8922 23.9868 10.4359 23.2038 9.08998C22.4207 7.78427 21.3767 6.7397 20.0716 5.95627C18.7264 5.17284 17.2708 4.78113 15.7047 4.78113ZM5.73617 5.74535C5.79641 5.74535 5.86668 5.77548 5.94699 5.83574L9.8923 9.87341C9.9123 9.95376 9.8923 10.0241 9.832 10.0843L6.97095 12.9167L7.18177 13.5194L7.57328 14.3631C7.89452 15.046 8.26596 15.7089 8.68759 16.3518C9.26985 17.2557 9.9123 18.0291 10.615 18.6719C11.5587 19.5959 12.6931 20.4396 14.0182 21.203C14.6808 21.5846 15.243 21.8659 15.7047 22.0467L16.3071 22.3179L19.2284 19.3951C19.2685 19.3549 19.2986 19.3348 19.3187 19.3348C19.3388 19.3348 19.3689 19.3549 19.4091 19.3951L23.4748 23.4629C23.515 23.503 23.535 23.5332 23.535 23.5533C23.535 23.5533 23.515 23.5733 23.4748 23.6135L20.4632 26.5966C20.0214 26.9782 19.5396 27.0787 19.0176 26.8979C14.9217 25.3109 11.5085 23.1415 8.77794 20.3894C7.09142 18.702 5.61571 16.7836 4.35081 14.6342C3.44732 13.0875 2.7446 11.5909 2.24266 10.1446V10.1145C2.16235 9.93367 2.15231 9.72275 2.21254 9.48169C2.27277 9.22055 2.3832 9.01967 2.54382 8.87906L5.52536 5.83574C5.58559 5.77548 5.65586 5.74535 5.73617 5.74535ZM15.7047 8.638V10.5664C16.5078 10.5664 17.1905 10.8477 17.7527 11.4101C18.3148 11.9726 18.5959 12.6556 18.5959 13.4591H20.5234C20.5234 12.5953 20.3025 11.7918 19.8608 11.0485C19.4392 10.3053 18.8569 9.72275 18.1141 9.3009C17.3712 8.85897 16.5681 8.638 15.7047 8.638Z" fill="white"/>
</g>
</svg>
