<svg width="25" height="25" viewBox="0 0 25 25" fill="none" xmlns="http://www.w3.org/2000/svg">
<mask id="mask0_1_11" style="mask-type:alpha" maskUnits="userSpaceOnUse" x="0" y="0" width="25" height="25">
<path d="M8.5625 0.140625V5.0625H6.59375V3.09375H0.6875V20.8125H2.65625V21.7969C2.65625 22.5967 2.94336 23.2837 3.51758 23.8579C4.1123 24.4526 4.80957 24.75 5.60938 24.75C6.40918 24.75 7.09619 24.4526 7.67041 23.8579C8.26514 23.2837 8.5625 22.5967 8.5625 21.7969V20.8125H24.3125V5.0625H20.375V0.140625H8.5625ZM10.5312 2.10938H18.4062V7.03125H10.5312V2.10938ZM2.65625 5.0625H4.625V18.8438H2.65625V5.0625ZM6.59375 7.03125H8.5625V9H20.375V7.03125H22.3438V18.8438H6.59375V7.03125ZM9.54688 10.9688V12.9375H11.5156V10.9688H9.54688ZM13.4844 10.9688V12.9375H15.4531V10.9688H13.4844ZM17.4219 10.9688V12.9375H19.3906V10.9688H17.4219ZM9.54688 14.9062V16.875H11.5156V14.9062H9.54688ZM13.4844 14.9062V16.875H15.4531V14.9062H13.4844ZM17.4219 14.9062V16.875H19.3906V14.9062H17.4219ZM4.625 20.8125H6.59375V21.7969C6.59375 22.0635 6.49121 22.2993 6.28613 22.5044C6.10156 22.689 5.87598 22.7812 5.60938 22.7812C5.34277 22.7812 5.10693 22.689 4.90186 22.5044C4.71729 22.2993 4.625 22.0635 4.625 21.7969V20.8125Z" fill="black"/>
</mask>
<g mask="url(#mask0_1_11)">
<path d="M8.5625 0.140625V5.0625H6.59375V3.09375H0.6875V20.8125H2.65625V21.7969C2.65625 22.5967 2.94336 23.2837 3.51758 23.8579C4.1123 24.4526 4.80957 24.75 5.60938 24.75C6.40918 24.75 7.09619 24.4526 7.67041 23.8579C8.26514 23.2837 8.5625 22.5967 8.5625 21.7969V20.8125H24.3125V5.0625H20.375V0.140625H8.5625ZM10.5312 2.10938H18.4062V7.03125H10.5312V2.10938ZM2.65625 5.0625H4.625V18.8438H2.65625V5.0625ZM6.59375 7.03125H8.5625V9H20.375V7.03125H22.3438V18.8438H6.59375V7.03125ZM9.54688 10.9688V12.9375H11.5156V10.9688H9.54688ZM13.4844 10.9688V12.9375H15.4531V10.9688H13.4844ZM17.4219 10.9688V12.9375H19.3906V10.9688H17.4219ZM9.54688 14.9062V16.875H11.5156V14.9062H9.54688ZM13.4844 14.9062V16.875H15.4531V14.9062H13.4844ZM17.4219 14.9062V16.875H19.3906V14.9062H17.4219ZM4.625 20.8125H6.59375V21.7969C6.59375 22.0635 6.49121 22.2993 6.28613 22.5044C6.10156 22.689 5.87598 22.7812 5.60938 22.7812C5.34277 22.7812 5.10693 22.689 4.90186 22.5044C4.71729 22.2993 4.625 22.0635 4.625 21.7969V20.8125Z" fill="white"/>
</g>
</svg>
