<svg width="26" height="23" viewBox="0 0 26 23" fill="none" xmlns="http://www.w3.org/2000/svg">
<mask id="mask0_1_9" style="mask-type:alpha" maskUnits="userSpaceOnUse" x="0" y="0" width="26" height="23">
<path d="M6.45455 0.125V2.09624L0.25 6.13565V22.875H25.0682V6.13565L18.8636 2.09624V0.125H6.45455ZM8.52273 2.19318H16.7955V10.1428L12.6591 12.8249L8.52273 10.1428V2.19318ZM9.5568 4.26136V6.32955H15.7614V4.26136H9.5568ZM6.45455 4.5522V8.78551L3.1907 6.68501L6.45455 4.5522ZM18.8636 4.5522L22.1275 6.68501L18.8636 8.78551V4.5522ZM9.5568 7.36364V9.43182H15.7614V7.36364H9.5568ZM2.31818 8.59162L12.6591 15.2809L23 8.59162V20.8068H2.31818V8.59162Z" fill="black"/>
</mask>
<g mask="url(#mask0_1_9)">
<path d="M6.45455 0.125V2.09624L0.25 6.13565V22.875H25.0682V6.13565L18.8636 2.09624V0.125H6.45455ZM8.52273 2.19318H16.7955V10.1428L12.6591 12.8249L8.52273 10.1428V2.19318ZM9.5568 4.26136V6.32955H15.7614V4.26136H9.5568ZM6.45455 4.5522V8.78551L3.1907 6.68501L6.45455 4.5522ZM18.8636 4.5522L22.1275 6.68501L18.8636 8.78551V4.5522ZM9.5568 7.36364V9.43182H15.7614V7.36364H9.5568ZM2.31818 8.59162L12.6591 15.2809L23 8.59162V20.8068H2.31818V8.59162Z" fill="white"/>
</g>
</svg>
