<svg width="15" height="14" viewBox="0 0 15 14" fill="none" xmlns="http://www.w3.org/2000/svg">
<path d="M3.20498 1.74977C3.20479 2.1476 3.04656 2.52905 2.76511 2.81021C2.48367 3.09138 2.10206 3.24922 1.70423 3.24902C1.30641 3.24882 0.924961 3.0906 0.643797 2.80915C0.362633 2.52771 0.204788 2.1461 0.204987 1.74827C0.205186 1.35045 0.363412 0.968997 0.644857 0.687833C0.926303 0.406669 1.30791 0.248825 1.70573 0.249024C2.10356 0.249223 2.48501 0.407449 2.76618 0.688894C3.04734 0.970339 3.20518 1.35195 3.20498 1.74977ZM3.24998 4.35977H0.249987V13.7498H3.24998V4.35977ZM7.98998 4.35977H5.00498V13.7498H7.95998V8.82227C7.95998 6.07727 11.5375 5.82227 11.5375 8.82227V13.7498H14.5V7.80227C14.5 3.17477 9.20498 3.34727 7.95998 5.61977L7.98998 4.35977Z" fill="white"/>
</svg>
