<svg width="148" height="40" viewBox="0 0 148 40" fill="none" xmlns="http://www.w3.org/2000/svg">
<path d="M57.6049 17.3896C57.2583 16.751 56.7565 16.2675 56.0997 15.9391C55.4611 15.5925 54.704 15.4192 53.8283 15.4192C52.3139 15.4192 51.1008 15.9209 50.1885 16.9243C49.2762 17.9095 48.8202 19.2323 48.8202 20.8925C48.8202 22.6622 49.2946 24.0488 50.2432 25.0522C51.2102 26.0374 52.5329 26.5301 54.2114 26.5301C55.3608 26.5301 56.3278 26.2382 57.1123 25.6543C57.9151 25.0705 58.4988 24.2312 58.8638 23.1366H52.9252V19.6884H63.1056V24.0397C62.759 25.2073 62.166 26.2929 61.3268 27.2963C60.5058 28.2997 59.4567 29.1117 58.1796 29.732C56.9025 30.3522 55.4611 30.6624 53.8556 30.6624C51.9582 30.6624 50.2614 30.2519 48.7654 29.4309C47.2876 28.5917 46.1291 27.4332 45.2899 25.9553C44.4688 24.4775 44.0583 22.79 44.0583 20.8925C44.0583 18.995 44.4688 17.3075 45.2899 15.8297C46.1291 14.3336 47.2876 13.1751 48.7654 12.3541C50.2432 11.5149 51.9308 11.0952 53.8283 11.0952C56.1271 11.0952 58.061 11.6517 59.63 12.7646C61.2173 13.8775 62.2664 15.4192 62.7772 17.3896H57.6049ZM70.3775 17.8001C70.9248 16.9608 71.609 16.304 72.43 15.8297C73.251 15.3371 74.1632 15.0908 75.1666 15.0908V20.0441H73.8804C72.7128 20.0441 71.8371 20.2996 71.2532 20.8104C70.6693 21.303 70.3775 22.1787 70.3775 23.4376V30.5256H65.6978V15.255H70.3775V17.8001ZM84.3546 30.7445C82.8585 30.7445 81.5085 30.4253 80.3043 29.7867C79.1184 29.1481 78.1788 28.2359 77.4856 27.05C76.8104 25.8641 76.473 24.4775 76.473 22.8903C76.473 21.3212 76.8196 19.9438 77.5129 18.7579C78.2061 17.5538 79.1549 16.6324 80.3591 15.9939C81.5632 15.3553 82.9132 15.036 84.4093 15.036C85.9054 15.036 87.2555 15.3553 88.4596 15.9939C89.6638 16.6324 90.6124 17.5538 91.3058 18.7579C91.999 19.9438 92.3457 21.3212 92.3457 22.8903C92.3457 24.4593 91.9899 25.8459 91.2784 27.05C90.5851 28.2359 89.6272 29.1481 88.4049 29.7867C87.2007 30.4253 85.8506 30.7445 84.3546 30.7445ZM84.3546 26.6943C85.2486 26.6943 86.0057 26.3658 86.626 25.709C87.2645 25.0522 87.5839 24.1126 87.5839 22.8903C87.5839 21.6679 87.2737 20.7283 86.6534 20.0715C86.0513 19.4147 85.3033 19.0863 84.4093 19.0863C83.4971 19.0863 82.74 19.4147 82.1379 20.0715C81.5358 20.7101 81.2348 21.6496 81.2348 22.8903C81.2348 24.1126 81.5267 25.0522 82.1105 25.709C82.7126 26.3658 83.4606 26.6943 84.3546 26.6943ZM116.749 15.255L112.616 30.5256H107.444L105.036 20.6188L102.546 30.5256H97.4009L93.2411 15.255H97.9208L100.083 26.1743L102.655 15.255H107.608L110.208 26.1195L112.343 15.255H116.749ZM126.196 19.141H123.679V30.5256H118.999V19.141H117.302V15.255H118.999V14.8171C118.999 12.9379 119.537 11.5149 120.614 10.5479C121.69 9.56267 123.268 9.07007 125.348 9.07007C125.694 9.07007 125.95 9.07919 126.114 9.09744V13.0656C125.221 13.0109 124.591 13.1386 124.226 13.4487C123.861 13.7589 123.679 14.3153 123.679 15.1181V15.255H126.196V19.141ZM143.994 15.255L134.416 37.7778H129.38L132.883 30.0056L126.671 15.255H131.898L135.429 24.8059L138.931 15.255H143.994Z" fill="white"/>
<path d="M23.1565 12.632C23.1565 8.56277 26.4552 5.26404 30.5244 5.26404H37.8924V12.632C37.8924 16.7012 34.5937 20 30.5244 20C26.4552 20 23.1565 16.7012 23.1565 12.632Z" fill="#FF6D35"/>
<path d="M30.5243 37.6771C26.4551 37.6771 23.1564 34.3784 23.1564 30.3091V22.9412H30.5243C34.5936 22.9412 37.8923 26.2399 37.8923 30.3091C37.8923 34.3784 34.5936 37.6771 30.5243 37.6771Z" fill="#5CC97B"/>
<path d="M20.8348 20.6522C20.8348 12.4754 14.7086 5.84692 7.15147 5.84692V30.0214C7.15147 34.1096 10.2146 37.424 13.9932 37.424C17.7718 37.424 20.8348 34.1096 20.8348 30.0214V20.6522Z" fill="#3D96F4"/>
</svg>
